<svg xmlns='http://www.w3.org/2000/svg' width='600' height='900'><style>text{text-transform: uppercase;font-family: Courier, monospace;fill: #3DEC00;}g{fill: #3DEC00;}</style><rect x='0.5' y='0.5' width='599' height='899' rx='25' fill='black' stroke='#ffb000'/><g transform='translate(120,80) scale(4)'><g transform='scale(4)'><path d="M1 2V0h8v2h1v10H7v4H3v-4H0V2zm1 4v4h2v2h2v-2h2V6H6v4H4V6z"/></g><g transform='translate(0,-10) scale(2.68)' style='fill:#ffb000;'><path d="M0 0v7h15V0h-1v1h-1v1h-1v1h-2V2H9V1H8V0H7v1H6v1H5v1H3V2H2V1H1V0H0Z"/></g></g><text x='570' y='60' font-size='40' style='fill:#ddd' text-anchor='end' dominant-baseline='middle' >#6350</text><text x='570' y='105' font-size='40' style='fill:#ddd' text-anchor='end' dominant-baseline='middle' >1st</text><text x='570' y='166' font-size='30' text-anchor='end' dominant-baseline='right'>1892 <tspan style='fill:#ffb000'>XP</tspan></text><text x='570' y='204' font-size='30' text-anchor='end' dominant-baseline='right'>43 <tspan style='fill:#ffb000'>LVL</tspan></text><g transform='translate(550,226) scale(1.5)' style='fill:#ffb000;'><path transform='translate(-5,-2) scale(1.3)' fill-rule='evenodd' d='M14.5 2.157v-1h-1v-1h-3v1h-1v1h-1v1h-1v-1h-1v-1h-1v-1h-3v1h-1v1h-1v4h1v2h1v1h1v1h1v1h1v1h1v1h1v1h1v-1h1v-1h1v-1h1v-1h1v-1h1v-1h1v-2h1v-4h-1Z' clip-rule='evenodd'/></g><text x='570' y='242' font-size='30' text-anchor='end' dominant-baseline='right'>0/550 <tspan style='fill:#ffb000'>&#160;</tspan></text><g transform='translate(550,264) scale(1.5)' style='fill:#ffb000;'><path transform='translate(-6,-2) scale(0.035)' d='m586.96 215.35v-64.566h-21.609v-21.559h-21.504v-43.062h-21.566v-21.504h-43.07v-21.559h-64.566v-21.504h-129.31v21.504h-64.566v21.559h-43.062v21.504h-21.559v43.062h-21.504v21.559h-21.559v64.566h-21.504v129.31h21.504v64.574h21.559v21.559h21.504v43.062h21.559v21.508h43.062v21.559h64.566v21.508h129.31v-21.508h64.566v-21.559h43.07v-21.508h21.566v-43.062h21.504v-21.559h21.609v-64.574h21.449v-129.31zm0 43.062v64.68'/></g><text x='570' y='280' font-size='30' text-anchor='end' dominant-baseline='right'>221 <tspan style='fill:#ffb000'>&#160;</tspan></text><g transform='translate(550,302) scale(1.5)' style='fill:#ffb000;'><path transform='translate(-2,-2) scale(1)' d='M3 3V2h2V0h7v2h2v1h-1v2h-1v2h-2v1H7V7H5V5H4V3zm4 0v1h1v2h2V1H9v1H8v1zM3 2H1v2h1v1h1v1h1v1h1v2h1v2H5v1H3v-1h2V9H4V8H3V7H2V6H1V5H0V2h1V1h2zm11 10h-2v-1h2zm-2-1h-1V9h1zm1-3v1h-1V7h1V6h1V5h1V4h1V2h1v3h-1v1h-1v1h-1v1zm3-7v1h-2V1zm-5 10v2H6v-2h1V9h3v2zm1 3v2H5v-2z'/></g><text x='570' y='318' font-size='30' text-anchor='end' dominant-baseline='right'>1st <tspan style='fill:#ffb000'>&#160;</tspan></text><text x='300' y='410' font-size='40' style='fill:#ddd' text-anchor='middle' dominant-baseline='middle' textLength='540'>Await</text><rect x='1' y='700' width='85' height='150' fill='#ffb000' shape-rendering='crispEdges'/><text x='43' y='750' font-size='30' style='fill:#000' text-anchor='middle' dominant-baseline='middle' >STR</text><text x='43' y='800' font-size='35' style='fill:#000' text-anchor='middle' dominant-baseline='middle' >19</text><rect x='86' y='700' width='85' height='150' fill='#ffb000' shape-rendering='crispEdges'/><text x='128' y='750' font-size='30' style='fill:#000' text-anchor='middle' dominant-baseline='middle' >DEX</text><text x='128' y='800' font-size='35' style='fill:#000' text-anchor='middle' dominant-baseline='middle' >12</text><rect x='171' y='700' width='85' height='150' fill='#3DEC00' shape-rendering='crispEdges'/><text x='213' y='750' font-size='30' style='fill:#000' text-anchor='middle' dominant-baseline='middle' >INT</text><text x='213' y='800' font-size='35' style='fill:#000' text-anchor='middle' dominant-baseline='middle' >7</text><rect x='256' y='700' width='85' height='150' fill='#ffb000' shape-rendering='crispEdges'/><text x='298' y='750' font-size='30' style='fill:#000' text-anchor='middle' dominant-baseline='middle' >VIT</text><text x='298' y='800' font-size='35' style='fill:#000' text-anchor='middle' dominant-baseline='middle' >30</text><rect x='341' y='700' width='85' height='150' fill='#ffb000' shape-rendering='crispEdges'/><text x='383' y='750' font-size='30' style='fill:#000' text-anchor='middle' dominant-baseline='middle' >WIS</text><text x='383' y='800' font-size='35' style='fill:#000' text-anchor='middle' dominant-baseline='middle' >13</text><rect x='426' y='700' width='85' height='150' fill='#ffb000' shape-rendering='crispEdges'/><text x='468' y='750' font-size='30' style='fill:#000' text-anchor='middle' dominant-baseline='middle' >CHA</text><text x='468' y='800' font-size='35' style='fill:#000' text-anchor='middle' dominant-baseline='middle' >18</text><rect x='511' y='700' width='88' height='150' fill='#ffb000' shape-rendering='crispEdges'/><text x='555' y='750' font-size='30' style='fill:#000' text-anchor='middle' dominant-baseline='middle' >LUCK</text><text x='555' y='800' font-size='35' style='fill:#000' text-anchor='middle' dominant-baseline='middle' >100</text><text x='300' y='875' font-size='40' style='fill:#3DEC00' text-anchor='middle' dominant-baseline='middle' textLength='540'>LOOT SURVIVOR</text><g transform='translate(25,450) scale(1.5)' style='fill:#ffb000;'><path d="M8 4V3H6V2H5V1H3v2H2v2H1v1h2V5h2v2H4v2H3v2H2v2H1v2H0v2h2v-2h1v-2h1v-2h1V9h1V7h2v5h2v-2h1V8h1V6h1V4H8Z"/></g><text x='60' y='466' font-size='16' text-anchor='start' dominant-baseline='middle'>G20 Warhammer (+2 DEX, +1 CHA)</text><g transform='translate(25,480) scale(1.5)' style='fill:#ffb000;'><path d="M0 8h2V7H0v1Zm3-3V2H2v1H1v2H0v1h4V5H3Zm2-4H4v4h1V1Zm6 0v4h1V1h-1Zm4 4V3h-1V2h-1v3h-1v1h4V5h-1Zm-1 3h2V7h-2v1ZM9 7H7V6H4v1H3v4h4v-1h2v1h4V7h-1V6H9v1Zm1 6v1h1v2h1v-2h1v-2H9v1h1Zm-3-1h2v-1H7v1Zm0 1v-1H3v2h1v2h1v-2h1v-1h1Zm2 0H7v1H6v2h4v-2H9v-1Z" /></g><text x='60' y='496' font-size='16' text-anchor='start' dominant-baseline='middle'>G20 Demon Husk (+3 STR)</text><g transform='translate(25,510) scale(1.5)' style='fill:#ffb000;'><path d="M12 2h-1V1h-1V0H6v1H5v1H4v1H3v8h1v1h2V8H5V7H4V5h3v4h2V5h3v2h-1v1h-1v4h2v-1h1V3h-1V2ZM2 2V1H1V0H0v2h1v2h1v1-2h1V2H2Zm13-2v1h-1v1h-1v1h1v2-1h1V2h1V0h-1Z"/></g><text x='60' y='526' font-size='16' text-anchor='start' dominant-baseline='middle'>G20 Crown (+2 WIS, +1 INT)</text><g transform='translate(25,540) scale(1.5)' style='fill:#ffb000;'><path d="M0 13h2v-1H0v1Zm0-2h3v-1H0v1Zm1-7H0v5h3V8h2V3H1v1Zm0-2h4V0H1v2Zm5 0h1V1h1v1h1V0H6v2Zm8-2h-4v2h4V0Zm0 4V3h-4v5h2v1h3V4h-1Zm-2 7h3v-1h-3v1Zm1 2h2v-1h-2v1ZM6 9h1v1h1V9h1V3H6v6Z"/></g><text x='60' y='556' font-size='16' text-anchor='start' dominant-baseline='middle'>G20 Demonhide Belt (+3 WIS)</text><g transform='translate(25,570) scale(1.5)' style='fill:#ffb000;'><path d="M4 1V0H0v2h5V1H4Zm2-1H5v1h1V0Zm0 2H5v1h1V2Zm0 2V3H5v1h1Zm0 2V5H5v1h1Zm0 2V7H5v1h1Zm5 0V7H9v1h2Zm0-2V5H9v1h2Zm0-2V3H9v1h2Zm0-2H9v1h2V2Zm0-2H9v1h2V0ZM8 1V0H7v2h2V1H8Zm0 6h1V6H8V5h1V4H8V3h1-2v5h1V7ZM6 9V8H4V7h1V6H4V5h1V4H4V3h1-5v8h5V9h1Zm5 0h-1V8H7v1H6v2H5v1h6V9ZM0 13h5v-1H0v1Zm11 0v-1H5v1h6Zm1 0h4v-1h-4v1Zm3-3V9h-1V8h-2v1h-1v1h1v2h4v-2h-1Zm-4-2v1-1Z"/></g><text x='60' y='586' font-size='16' text-anchor='start' dominant-baseline='middle'>G20 Demonhide Boots (+3 VIT)</text><g transform='translate(25,600) scale(1.5)' style='fill:#ffb000;'><path d="M9 8v1H8v3H4v-1h3V2H6v7H5V1H4v8H3V2H2v8H1V5H0v10h1v2h5v-1h2v-1h1v-2h1V8H9Z"/></g><text x='60' y='616' font-size='16' text-anchor='start' dominant-baseline='middle'>G20 Demon's Hands (+2 DEX, +1 CHA)</text><g transform='translate(25,630) scale(1.5)' style='fill:#ffb000;'><path d="M14 8V6h-1V5h-1V4h-1V3h-1V2H8V1H2v1H1v1H0v8h1v1h1v1h4v-1h1v-1H3v-1H2V4h1V3h4v1h2v1h1v1h1v1h1v1h1v1h-2v1h1v1h2v-1h1V8h-1Zm-6 3v1h1v-1H8Zm1 0h2v-1H9v1Zm4 3v-2h-1v2h1Zm-6-2v2h1v-2H7Zm2 4h2v-1H9v1Zm-1-2v1h1v-1H8Zm3 1h1v-1h-1v1Zm0-3h1v-1h-1v1Zm-2 2h2v-2H9v2Z"/></g><text x='60' y='646' font-size='16' text-anchor='start' dominant-baseline='middle'>G20 Necklace (+2 STR, +1 DEX)</text><g transform='translate(25,660) scale(1.5)' style='fill:#ffb000;'><path d="M13 3V2h-1V1h-2v1h1v3h-1v2H9v1H8v1H7v1H6v1H4v1H1v-1H0v2h1v1h1v1h4v-1h2v-1h1v-1h1v-1h1v-1h1V9h1V7h1V3h-1ZM3 9h1V8h1V7h1V6h1V5h1V4h2V2H9V1H8v1H6v1H5v1H4v1H3v1H2v1H1v2H0v1h1v1h2V9Z"/></g><text x='60' y='676' font-size='16' text-anchor='start' dominant-baseline='middle'>G20 Titanium Ring (+3 INT)</text></svg>