<svg width="515" height="56" viewBox="0 0 515 56" fill="none" xmlns="http://www.w3.org/2000/svg">
<g clip-path="url(#clip0_503_30462)">
<path d="M7.39933 0.803894V48.9289H28.0973V55.8039H0.5V0.803894H7.39933ZM59.1443 0.803894V7.67889H62.594V14.5539H66.0436V42.0539H62.594V48.9289H59.1443V55.8039H41.896V48.9289H38.4463V42.0539H34.9966V14.5539H38.4463V7.67889H41.896V0.803894H59.1443ZM45.3456 7.67889V14.5539H41.896V42.0539H45.3456V48.9289H55.6946V42.0539H59.1443V14.5539H55.6946V7.67889H45.3456ZM148.836 0.803894V7.67889H135.037V55.8039H128.138V7.67889H114.339V0.803894H148.836ZM221.279 14.5539V7.67889H204.03V21.4289H228.178V48.9289H224.728V55.8039H200.581V48.9289H197.131V42.0539H204.03V48.9289H221.279V28.3039H200.581V21.4289H197.131V7.67889H200.581V0.803894H224.728V7.67889H228.178V14.5539H221.279ZM245.426 0.803894V48.9289H259.225V0.803894H266.124V48.9289H262.674V55.8039H241.977V48.9289H238.527V0.803894H245.426ZM300.621 0.803894V7.67889H304.07V21.4289H297.171V28.3039H300.621V35.1789H304.07V42.0539H307.52V55.8039H300.621V42.0539H297.171V35.1789H293.721V28.3039H283.372V55.8039H276.473V0.803894H300.621ZM283.372 7.67889V21.4289H297.171V7.67889H283.372ZM324.768 0.803894V28.3039H328.218V35.1789H331.668V42.0539H335.117V35.1789H338.567V28.3039H342.017V0.803894H348.916V28.3039H345.466V35.1789H342.017V42.0539H338.567V48.9289H335.117V55.8039H331.668V48.9289H328.218V42.0539H324.768V35.1789H321.319V28.3039H317.869V0.803894H324.768ZM383.413 0.803894V7.67889H376.513V48.9289H383.413V55.8039H362.715V48.9289H369.614V7.67889H362.715V0.803894H383.413ZM404.111 0.803894V28.3039H407.56V35.1789H411.01V42.0539H414.46V35.1789H417.909V28.3039H421.359V0.803894H428.258V28.3039H424.809V35.1789H421.359V42.0539H417.909V48.9289H414.46V55.8039H411.01V48.9289H407.56V42.0539H404.111V35.1789H400.661V28.3039H397.211V0.803894H404.111ZM507.601 0.803894V7.67889H511.05V21.4289H504.151V28.3039H507.601V35.1789H511.05V42.0539H514.5V55.8039H507.601V42.0539H504.151V35.1789H500.701V28.3039H490.352V55.8039H483.453V0.803894H507.601ZM490.352 7.67889V21.4289H504.151V7.67889H490.352ZM100.54 0.803894V7.67889H103.99V14.5539H107.44V42.0539H103.99V48.9289H100.54V55.8039H83.2919V48.9289H79.8423V42.0539H76.3926V14.5539H79.8423V7.67889H83.2919V0.803894H100.54ZM86.7416 7.67889V14.5539H83.2919V42.0539H86.7416V48.9289H97.0906V42.0539H100.54V14.5539H97.0906V7.67889H86.7416ZM442.057 7.67889V0.803894H469.654V7.67889H473.104V42.0539H462.755V55.8039H448.956V42.0539H438.607V7.67889H442.057ZM445.507 21.4289V35.1789H452.406V42.0539H459.305V35.1789H466.205V21.4289H459.305V35.1789H452.406V21.4289H445.507Z" fill="#00FF3C"/>
</g>
<defs>
<clipPath id="clip0_503_30462">
<rect width="514" height="55" fill="white" transform="translate(0.5 0.803894)"/>
</clipPath>
</defs>
</svg>
